<svg xmlns="http://www.w3.org/2000/svg" viewBox="0 0 158.39 153.42"><defs><style>.cls-1{fill:#c1467f;}.cls-2{fill:#1b2e4f;}</style></defs><g id="Layer_2" data-name="Layer 2"><g id="Layer_1-2" data-name="Layer 1"><path class="cls-1" d="M93.66,22q27.54,0,55.09,0c7.53,0,10.35,2.44,9.49,9.94-1.25,11-3.36,22-5.25,32.92-2.49,14.37-5.09,28.72-7.71,43.07-1.87,10.26-5.69,13.38-16.18,13.38q-43.59,0-87.19,0c-7.86,0-10.69-3.37-9.39-11.22q2.82-17.1,5.85-34.16C40.33,64.94,44,62,55,62h54.65c6.45,0,8.22,1.13,8.7,5.39.75,6.52-2.44,12.51-7.37,13.55a24.71,24.71,0,0,1-5.17.35c-14,0-28,0-42.08,0-5.17,0-6.92,1.4-8.28,6.38s.53,7.85,5.87,7.88c11.71.08,23.43,0,35.14,0,8.1,0,16.19,0,24.29,0,5.38,0,7.5-1.4,8.54-6.66q3.31-16.79,5.95-33.69c.92-6-.73-7.52-6.86-7.53q-46.63,0-93.26,0c-9.61,0-12.2-3.32-10.24-13S30.52,22,40.31,22Z"/><path class="cls-2" d="M37,141.12A12.19,12.19,0,0,1,49,128.5a12.46,12.46,0,0,1,12.84,12.39,12.75,12.75,0,0,1-12.38,12.53A12.45,12.45,0,0,1,37,141.12Z"/><path class="cls-2" d="M113.34,140.86a12.15,12.15,0,0,1,12.31-12.36,12.45,12.45,0,0,1,12.57,12.65,12.75,12.75,0,0,1-12.64,12.27A12.45,12.45,0,0,1,113.34,140.86Z"/><path class="cls-2" d="M25,12.6A12.45,12.45,0,0,1,12.54,25,12.76,12.76,0,0,1,0,12.57,12.74,12.74,0,0,1,12.79,0,12.45,12.45,0,0,1,25,12.6Z"/><path class="cls-2" d="M87.86,143.72c-5.63,0-11.25-.05-16.87,0-1.91,0-3-.49-3-2.64s1-2.76,2.9-2.75q17.3,0,34.6,0c2.1,0,2.68.91,2.7,2.88,0,2.3-1.27,2.53-3.06,2.51C99.39,143.69,93.62,143.72,87.86,143.72Z"/></g></g></svg>